<?xml version="1.0" encoding="UTF-8"?>
<svg version="1.1" xmlns="http://www.w3.org/2000/svg" width="512" height="279">
<path d="M0 0 C7.59 0 15.18 0 23 0 C23.33 14.19 23.66 28.38 24 43 C26.31 41.02 28.62 39.04 31 37 C40.40789484 31.32491505 53.70693291 31.33479421 64.19921875 33.73046875 C66.63106914 34.64287816 68.76673529 35.68014492 71 37 C71.94166016 37.49113281 71.94166016 37.49113281 72.90234375 37.9921875 C80.26658887 42.40751171 84.57288416 50.6524452 86.875 58.6875 C89.08072063 67.66394536 89.13563235 76.49558031 89.09765625 85.6875 C89.0962413 86.98574707 89.09482635 88.28399414 89.09336853 89.62158203 C89.08957825 93.04756652 89.07977839 96.47350759 89.06866455 99.8994751 C89.05837479 103.40563368 89.05385481 106.91179937 89.04882812 110.41796875 C89.03815246 117.2786635 89.02111874 124.13932966 89 131 C85.02084841 131.02886984 81.04172347 131.04675406 77.0625 131.0625 C75.35803711 131.07506836 75.35803711 131.07506836 73.61914062 131.08789062 C72.53955078 131.09111328 71.45996094 131.09433594 70.34765625 131.09765625 C68.84730835 131.10551147 68.84730835 131.10551147 67.31665039 131.11352539 C65 131 65 131 64 130 C63.89243153 128.2375228 63.85374325 126.47079768 63.84228516 124.70507812 C63.83202301 123.57299927 63.82176086 122.44092041 63.81118774 121.27453613 C63.80388641 120.03925171 63.79658508 118.80396729 63.7890625 117.53125 C63.76097666 114.93228555 63.7323121 112.33332731 63.703125 109.734375 C63.66081145 105.62438379 63.62406315 101.51442864 63.59863281 97.40429688 C63.57348461 93.44640242 63.5250263 89.48892891 63.4765625 85.53125 C63.47330963 84.31215942 63.47005676 83.09306885 63.46670532 81.83703613 C63.33894031 72.91165989 62.60181686 64.60181686 56 58 C51.76118608 54.97227577 46.44554341 54.62032659 41.43359375 55.3984375 C35.55618091 56.88749887 32.26306575 58.66043786 29 64 C25.61341466 71.34606356 25.52996169 78.59401214 25.48828125 86.56640625 C25.47033005 87.84104233 25.45237885 89.11567841 25.43388367 90.42893982 C25.38912966 93.78755069 25.35670432 97.14580479 25.33044434 100.50457764 C25.30045437 103.94393751 25.25414519 107.38307701 25.20898438 110.82226562 C25.12184523 117.54819195 25.0615932 124.27359783 25 131 C16.75 131 8.5 131 0 131 C0 87.77 0 44.54 0 0 Z " fill="#F6F1F1" transform="translate(357,63)"/>
<path d="M0 0 C1.03833984 -0.020625 2.07667969 -0.04125 3.14648438 -0.0625 C14.07813328 -0.11732959 24.64168191 2.44089115 33.06640625 9.77734375 C40.1076913 17.27745941 42.44463026 27.03179237 42.42602539 37.05981445 C42.42617142 37.72378738 42.42631744 38.38776031 42.4264679 39.07185364 C42.42577483 41.25236349 42.41801099 43.43278644 42.41015625 45.61328125 C42.40828992 47.1307114 42.40686703 48.64814215 42.40586853 50.16557312 C42.40206032 54.14891235 42.39224459 58.1322148 42.38116455 62.11553955 C42.37091389 66.18444318 42.36636309 70.25335279 42.36132812 74.32226562 C42.35062074 82.29819579 42.33303774 90.27408908 42.3125 98.25 C35.7125 98.25 29.1125 98.25 22.3125 98.25 C21.8175 94.29 21.8175 94.29 21.3125 90.25 C18.43132722 90.25 17.47366588 91.69849443 15.3125 93.5625 C5.09043525 101.51478344 -7.18312851 101.47437506 -19.6875 100.25 C-23.40355875 99.39346163 -26.41738335 98.18784691 -29.6875 96.25 C-31.29625 95.38375 -31.29625 95.38375 -32.9375 94.5 C-40.19635445 88.56093727 -43.72879116 81.4003701 -44.96875 72.15234375 C-45.33298054 64.51867875 -42.48905581 57.08973004 -37.6875 51.25 C-23.40762375 38.03034658 -0.98826698 37.34585216 17.3125 34.25 C16.88150297 32.78946164 16.43599901 31.33319868 15.984375 29.87890625 C15.7378418 29.06752197 15.49130859 28.2561377 15.23730469 27.42016602 C14.40243153 24.95884457 14.40243153 24.95884457 11.5625 23.1875 C4.67330282 21.01895185 -4.36651459 20.88414231 -11.01171875 23.6171875 C-15.04482076 26.07826289 -17.10437503 29.37531255 -19.6875 33.25 C-22.32031816 32.54424456 -24.95052087 31.83044243 -27.578125 31.10546875 C-29.5849895 30.55332889 -31.59525867 30.01335168 -33.609375 29.48828125 C-34.50140625 29.24464844 -35.3934375 29.00101563 -36.3125 28.75 C-37.12976563 28.5334375 -37.94703125 28.316875 -38.7890625 28.09375 C-39.41554687 27.8153125 -40.04203125 27.536875 -40.6875 27.25 C-41.90200951 23.60647147 -41.43140047 22.93256406 -39.8125 19.5625 C-34.7629287 10.04600024 -26.68263008 4.7785838 -16.6875 1.25 C-11.13288154 -0.0504143 -5.67887975 0.02768497 0 0 Z M4.75 55.5 C2.99719727 55.80744141 2.99719727 55.80744141 1.20898438 56.12109375 C-6.1871841 57.49770717 -12.8014368 58.97113417 -18.6875 63.9375 C-20.31222457 67.69467557 -20.43940721 71.23982823 -19.6875 75.25 C-17.29142582 78.6625905 -15.35811649 79.95492875 -11.5625 81.625 C-4.31590042 82.79380638 1.91654536 82.53786444 8.25 78.5625 C14.06905582 74.19820814 16.8631597 69.37592316 18.3125 62.25 C18.45671406 59.2407333 18.43533807 56.25953269 18.3125 53.25 C13.85261437 53.25 9.12164795 54.69401423 4.75 55.5 Z " fill="#F6F2F2" transform="translate(209.6875,95.75)"/>
<path d="M0 0 C0.76570313 0.4021875 1.53140625 0.804375 2.3203125 1.21875 C11.81488709 6.85909134 16.04840244 15.63156753 19 26 C19.82336118 30.20919955 20.12213161 34.17845766 20.11352539 38.46435547 C20.11341209 40.35563675 20.11341209 40.35563675 20.11329651 42.28512573 C20.10819109 43.6458134 20.10297511 45.00650065 20.09765625 46.3671875 C20.09578912 47.77108713 20.09436661 49.17498742 20.09336853 50.57888794 C20.08956658 54.25807522 20.07975633 57.93722248 20.06866455 61.61639404 C20.05840031 65.37706969 20.0538602 69.13775186 20.04882812 72.8984375 C20.03813179 80.26564528 20.02055401 87.63281191 20 95 C12.08 95 4.16 95 -4 95 C-4.03738281 91.08511719 -4.07476562 87.17023438 -4.11328125 83.13671875 C-4.15958 79.31724675 -4.21078342 75.4978695 -4.26245117 71.6784668 C-4.29556934 69.03757556 -4.32364144 66.39661576 -4.34643555 63.75561523 C-4.38022271 59.94485441 -4.43255191 56.13471444 -4.48828125 52.32421875 C-4.49467117 51.15606125 -4.5010611 49.98790375 -4.50764465 48.78434753 C-4.66768517 39.72620107 -6.14742931 31.26485479 -10 23 C-12.44288628 21.68931667 -12.44288628 21.68931667 -15 21 C-15.66 20.67 -16.32 20.34 -17 20 C-24.25289637 19.33372343 -31.39753686 18.75106097 -37.44921875 23.3125 C-43.08180776 29.44166486 -44.07613285 37.72023673 -44.20532227 45.72998047 C-44.22526749 46.83066864 -44.24521271 47.93135681 -44.26576233 49.06539917 C-44.28247482 50.23748932 -44.29918732 51.40957947 -44.31640625 52.6171875 C-44.33718735 53.82948029 -44.35796844 55.04177307 -44.37937927 56.290802 C-44.44460982 60.1521453 -44.50363651 64.01355491 -44.5625 67.875 C-44.60571041 70.49740261 -44.6493255 73.11979859 -44.69335938 75.7421875 C-44.80102324 82.16139143 -44.90029427 88.58064781 -45 95 C-52.92 95 -60.84 95 -69 95 C-69 63.32 -69 31.64 -69 -1 C-61.74 -1 -54.48 -1 -47 -1 C-46.67 1.64 -46.34 4.28 -46 7 C-45.49210937 6.60167969 -44.98421875 6.20335938 -44.4609375 5.79296875 C-32.44905135 -3.45213464 -14.21744121 -7.53695679 0 0 Z " fill="#F6F2F2" transform="translate(132,99)"/>
<path d="M0 0 C5.63189163 4.95838706 9.36625229 11.70475031 11 19 C5.94887548 20.81448163 0.8600154 21.99784357 -4.375 23.125 C-5.20644531 23.30675781 -6.03789062 23.48851562 -6.89453125 23.67578125 C-8.92905316 24.12010213 -10.96444079 24.56045577 -13 25 C-13.44730469 23.89269531 -13.89460938 22.78539062 -14.35546875 21.64453125 C-16.57162909 16.73318303 -18.99790922 14.87047425 -23.875 12.75 C-30.46114277 11.16932574 -35.16374514 11.79578164 -41 15 C-42.84858535 17.31073169 -42.97816949 18.56338978 -43.125 21.5 C-41.35811209 25.42641759 -37.81938277 26.47385875 -34 28 C-28.6334394 29.63990653 -23.1798417 30.93502145 -17.73046875 32.26757812 C-10.61159849 34.0825993 -4.43154199 36.46376463 2 40 C2.72147217 40.339104 3.44294434 40.67820801 4.1862793 41.02758789 C8.14531254 43.15019247 9.55256215 47.96553703 11 52 C12.85405204 61.16329566 12.35061346 69.45315177 7.5625 77.5625 C2.02371786 85.24402267 -5.01386288 90.04156447 -14.30126953 91.65356445 C-29.59970017 93.61742125 -44.7851664 93.06116685 -57.9375 84.375 C-66.05901995 77.99380576 -69.06344417 70.85748577 -71 61 C-67.75128084 60.32698711 -64.50083621 59.6627049 -61.25 59 C-60.32960938 58.80921875 -59.40921875 58.6184375 -58.4609375 58.421875 C-57.57148438 58.24140625 -56.68203125 58.0609375 -55.765625 57.875 C-54.94868164 57.70742187 -54.13173828 57.53984375 -53.29003906 57.3671875 C-51 57 -51 57 -47 57 C-46.75765625 57.53109375 -46.5153125 58.0621875 -46.265625 58.609375 C-43.66149616 64.09807732 -41.71302561 67.93606839 -35.8125 70.25 C-28.41727245 71.70479886 -22.6810964 71.68142047 -16 68 C-13.68717413 64.53076119 -13.57521414 63.07794425 -14 59 C-19.12255519 52.66379327 -28.99450537 51.41283642 -36.5 49.5 C-58.07392023 43.96860065 -58.07392023 43.96860065 -64.28125 35.1875 C-68.49127748 27.72973704 -68.69028372 20.5551463 -66.5625 12.375 C-63.60311651 3.81895928 -58.76977852 -0.87089702 -50.75 -4.875 C-33.8963751 -11.73699858 -15.10157707 -10.06000923 0 0 Z " fill="#F6F2F2" transform="translate(334,104)"/>
<path d="M0 0 C3.58559325 2.81032984 5.82476889 5.31679126 7.25 9.6875 C7.35405007 14.89000352 5.61070915 18.44216812 2.0625 22.1875 C-1.42167358 24.24632984 -3.62508079 24.8125 -7.6875 24.8125 C-11.7585399 23.53795712 -14.80677568 21.77579222 -17.6875 18.625 C-19.12934515 14.56981052 -19.59900257 11.05171036 -18.6875 6.8125 C-14.47673573 -0.31137163 -8.10702425 -3.58217351 0 0 Z " fill="#F6F2F2" transform="translate(474.6875,108.1875)"/>
<path d="M0 0 C4.14967274 1.92114479 5.65933703 3.40658708 7.9375 7.375 C9.08894803 11.30346974 9.23526997 13.12948743 8 17 C5.78889325 20.96474314 4.20937974 23.30391293 0 25 C-4.00702589 25.77029703 -7.54811616 25.87813383 -11.10546875 23.7265625 C-16.67530499 19.01804114 -16.67530499 19.01804114 -17.30859375 15.08203125 C-17.57618531 10.37079795 -17.24366823 7.66500427 -14.125 4 C-9.85714966 -0.45340906 -5.99831656 -0.70687232 0 0 Z " fill="#F6F2F2" transform="translate(473,169)"/>
<path d="" fill="#FFFFFF" transform="translate(0,0)"/>
<path d="" fill="#FFFFFF" transform="translate(0,0)"/>
<path d="" fill="#FFFFFF" transform="translate(0,0)"/>
</svg>
