<?xml version="1.0" encoding="UTF-8"?>
<svg version="1.1" xmlns="http://www.w3.org/2000/svg" width="512" height="279">
<path d="M0 0 C0.33 14.19 0.66 28.38 1 43 C3.31 41.02 5.62 39.04 8 37 C17.40789484 31.32491505 30.70693291 31.33479421 41.19921875 33.73046875 C43.63106914 34.64287816 45.76673529 35.68014492 48 37 C48.94166016 37.49113281 48.94166016 37.49113281 49.90234375 37.9921875 C57.26658887 42.40751171 61.57288416 50.6524452 63.875 58.6875 C66.08072063 67.66394536 66.13563235 76.49558031 66.09765625 85.6875 C66.0962413 86.98574707 66.09482635 88.28399414 66.09336853 89.62158203 C66.08957825 93.04756652 66.07977839 96.47350759 66.06866455 99.8994751 C66.05837479 103.40563368 66.05385481 106.91179937 66.04882812 110.41796875 C66.03815246 117.2786653 66.02058456 124.13932609 66 131 C57.75 131 49.5 131 41 131 C40.98541748 129.25984619 40.97083496 127.51969238 40.95581055 125.72680664 C40.90395381 119.94716728 40.83861367 114.16776276 40.76428509 108.38837528 C40.71974892 104.8877656 40.68045731 101.38726781 40.65356445 97.88647461 C40.62233683 93.85241123 40.56755599 89.81895464 40.51171875 85.78515625 C40.50532883 84.54105484 40.4989389 83.29695343 40.49235535 82.01515198 C40.3417259 73.03145236 39.64917749 64.64917749 33 58 C27.91360994 54.73919915 21.79959186 55.53776603 16 56 C11.20232232 57.59922589 8.68987922 59.73329503 6 64 C2.61924097 71.35055184 2.52996995 78.59243311 2.48828125 86.56640625 C2.47033005 87.84104233 2.45237885 89.11567841 2.43388367 90.42893982 C2.38912966 93.78755069 2.35670432 97.14580479 2.33044434 100.50457764 C2.30045437 103.94393751 2.25414519 107.38307701 2.20898438 110.82226562 C2.12184523 117.54819195 2.0615932 124.27359783 2 131 C-6.25 131 -14.5 131 -23 131 C-23 87.77 -23 44.54 -23 0 C-2 -1 -2 -1 0 0 Z " fill="#02081D" transform="translate(380,63)"/>
<path d="M0 0 C0.78117187 0.24234375 1.56234375 0.4846875 2.3671875 0.734375 C9.19949616 3.17284206 12.80301774 7.59047838 16 14 C20.04316467 23.40243795 20.53719784 32.19759789 20.390625 42.265625 C20.38314489 43.79546359 20.37746035 45.32531189 20.37347412 46.85516357 C20.35835661 50.84030612 20.31919913 54.82484565 20.2746582 58.80975342 C20.23340168 62.89261727 20.21539892 66.97558059 20.1953125 71.05859375 C20.15268759 79.03933619 20.08461016 87.01959264 20 95 C16.70835171 95.02895225 13.41673601 95.0467823 10.125 95.0625 C9.18785156 95.07087891 8.25070313 95.07925781 7.28515625 95.08789062 C5.94130859 95.09272461 5.94130859 95.09272461 4.5703125 95.09765625 C3.32918701 95.10551147 3.32918701 95.10551147 2.06298828 95.11352539 C0 95 0 95 -2 94 C-1.34 91.69 -0.68 89.38 0 87 C-4.50563132 87.73912604 -6.96853102 90.3542233 -10.29296875 93.30859375 C-16.7465658 97.34092784 -24.51598328 97.387122 -31.9375 97.375 C-32.81341797 97.37556396 -33.68933594 97.37612793 -34.59179688 97.37670898 C-41.16118036 97.26481424 -46.15683674 96.03114094 -52 93 C-52.65871094 92.89429688 -53.31742188 92.78859375 -53.99609375 92.6796875 C-58.76027557 91.06376618 -61.52061623 85.10598585 -64 81 C-67.72967159 72.58054334 -68.12371632 64.7523116 -64.90234375 56.09765625 C-61.40638926 47.97069711 -55.34464208 43.25989452 -47.375 39.8125 C-33.92898338 34.88432196 -19.06307878 33.37898296 -5 31 C-5.43099703 29.53946164 -5.87650099 28.08319868 -6.328125 26.62890625 C-6.5746582 25.81752197 -6.82119141 25.0061377 -7.07519531 24.17016602 C-7.91006847 21.70884457 -7.91006847 21.70884457 -10.75 19.9375 C-17.63919718 17.76895185 -26.67901459 17.63414231 -33.32421875 20.3671875 C-37.35732076 22.82826289 -39.41687503 26.12531255 -42 30 C-44.63281816 29.29424456 -47.26302087 28.58044243 -49.890625 27.85546875 C-51.8974895 27.30332889 -53.90775867 26.76335168 -55.921875 26.23828125 C-56.81390625 25.99464844 -57.7059375 25.75101563 -58.625 25.5 C-59.44226563 25.2834375 -60.25953125 25.066875 -61.1015625 24.84375 C-61.72804687 24.5653125 -62.35453125 24.286875 -63 24 C-64.21450951 20.35647147 -63.74390047 19.68256406 -62.125 16.3125 C-57.16023817 6.95583348 -49.00591468 1.15307095 -39 -2 C-25.83034289 -4.90400377 -12.68379324 -4.72955002 0 0 Z M-5 50 C-5.33 50.33 -5.66 50.66 -6 51 C-7.9490625 51.1546875 -7.9490625 51.1546875 -9.9375 51.3125 C-15.12570881 51.79302875 -20.15906561 52.73454751 -25.25 53.8125 C-26.40230103 54.04223511 -26.40230103 54.04223511 -27.57788086 54.27661133 C-33.71594314 55.62116463 -38.38973081 57.58459622 -42 63 C-42.5457317 66.06758658 -42.51817575 68.92872917 -42 72 C-39.58336752 75.44187051 -37.65445484 76.71768615 -33.8125 78.375 C-24.81132343 79.85060272 -18.45759978 77.85286386 -10.875 73 C-6.15859715 68.8793533 -4.29977367 62.36036619 -3.7578125 56.28515625 C-3.75118818 54.18855983 -3.86281221 52.09211375 -4 50 C-4.33 50 -4.66 50 -5 50 Z " fill="#03081E" transform="translate(232,99)"/>
<path d="M0 0 C0.79124268 -0.01015137 1.58248535 -0.02030273 2.39770508 -0.03076172 C11.90013565 0.1090523 20.2093035 3.24001525 27.4375 9.4375 C41.73932478 24.24708188 38.94798198 46.77425265 38.7121582 65.74053955 C38.67069233 69.43500554 38.65285548 73.12958544 38.6328125 76.82421875 C38.59035408 84.02898762 38.52020727 91.23306014 38.4375 98.4375 C30.5175 98.4375 22.5975 98.4375 14.4375 98.4375 C14.40011719 94.52261719 14.36273438 90.60773438 14.32421875 86.57421875 C14.27792 82.75474675 14.22671658 78.9353695 14.17504883 75.1159668 C14.14193066 72.47507556 14.11385856 69.83411576 14.09106445 67.19311523 C14.05727729 63.38235441 14.00494809 59.57221444 13.94921875 55.76171875 C13.94282883 54.59356125 13.9364389 53.42540375 13.92985535 52.22184753 C13.76981483 43.16370107 12.29007069 34.70235479 8.4375 26.4375 C5.99461372 25.12681667 5.99461372 25.12681667 3.4375 24.4375 C2.7775 24.1075 2.1175 23.7775 1.4375 23.4375 C-5.81539637 22.77122343 -12.96003686 22.18856097 -19.01171875 26.75 C-24.64430776 32.87916486 -25.63863285 41.15773673 -25.76782227 49.16748047 C-25.78776749 50.26816864 -25.80771271 51.36885681 -25.82826233 52.50289917 C-25.84497482 53.67498932 -25.86168732 54.84707947 -25.87890625 56.0546875 C-25.89968735 57.26698029 -25.92046844 58.47927307 -25.94187927 59.728302 C-26.00710982 63.5896453 -26.06613651 67.45105491 -26.125 71.3125 C-26.16821041 73.93490261 -26.2118255 76.55729859 -26.25585938 79.1796875 C-26.36352324 85.59889143 -26.46279427 92.01814781 -26.5625 98.4375 C-34.4825 98.4375 -42.4025 98.4375 -50.5625 98.4375 C-50.5625 66.7575 -50.5625 35.0775 -50.5625 2.4375 C-30.5625 1.4375 -30.5625 1.4375 -28.5625 2.4375 C-27.96894386 5.08610427 -27.82040731 7.72947322 -27.5625 10.4375 C-27.10101563 10.05078125 -26.63953125 9.6640625 -26.1640625 9.265625 C-17.78015995 2.57175814 -10.67629237 0.09719821 0 0 Z " fill="#02081E" transform="translate(113.5625,95.5625)"/>
<path d="M0 0 C5.63189163 4.95838706 9.36625229 11.70475031 11 19 C5.94887548 20.81448163 0.8600154 21.99784357 -4.375 23.125 C-5.20644531 23.30675781 -6.03789062 23.48851562 -6.89453125 23.67578125 C-8.92905316 24.12010213 -10.96444079 24.56045577 -13 25 C-13.44730469 23.89269531 -13.89460938 22.78539062 -14.35546875 21.64453125 C-16.57162909 16.73318303 -18.99790922 14.87047425 -23.875 12.75 C-30.46114277 11.16932574 -35.16374514 11.79578164 -41 15 C-42.84858535 17.31073169 -42.97816949 18.56338978 -43.125 21.5 C-41.35811209 25.42641759 -37.81938277 26.47385875 -34 28 C-28.6334394 29.63990653 -23.1798417 30.93502145 -17.73046875 32.26757812 C-10.61159849 34.0825993 -4.43154199 36.46376463 2 40 C2.72147217 40.33402832 3.44294434 40.66805664 4.1862793 41.01220703 C6.77572123 42.42247518 7.43667383 44.18063546 8.6875 46.8125 C9.10386719 47.66457031 9.52023437 48.51664063 9.94921875 49.39453125 C12.97699133 56.90205657 12.48871326 65.15162303 10.1328125 72.82421875 C7.2086707 79.40857942 2.93761269 83.09252694 -3 87 C-3.825 87.598125 -4.65 88.19625 -5.5 88.8125 C-17.04742149 94.29752521 -34.11864388 93.77438353 -46.1875 90.5 C-55.62574358 86.96683552 -62.82327961 81.53124031 -67.87890625 72.78515625 C-69.42010318 68.95632903 -70.20609 65.04117269 -71 61 C-67.75128084 60.32698711 -64.50083621 59.6627049 -61.25 59 C-60.32960938 58.80921875 -59.40921875 58.6184375 -58.4609375 58.421875 C-57.57148438 58.24140625 -56.68203125 58.0609375 -55.765625 57.875 C-54.94868164 57.70742187 -54.13173828 57.53984375 -53.29003906 57.3671875 C-51 57 -51 57 -47 57 C-46.75765625 57.53109375 -46.5153125 58.0621875 -46.265625 58.609375 C-43.64673562 64.12918801 -41.70226117 67.96066878 -35.75 70.25 C-29.09656144 71.58068771 -23.41904778 71.51727364 -17 69 C-14.4100264 66.66066901 -14.0506026 65.41325456 -13.625 61.9375 C-14.05299956 58.58483679 -14.48680696 58.08674625 -17 56 C-23.04062617 52.69327792 -29.87604184 51.18816967 -36.5 49.5 C-58.07392023 43.96860065 -58.07392023 43.96860065 -64.28125 35.1875 C-68.49127748 27.72973704 -68.69028372 20.5551463 -66.5625 12.375 C-63.60311651 3.81895928 -58.76977852 -0.87089702 -50.75 -4.875 C-33.8963751 -11.73699858 -15.10157707 -10.06000923 0 0 Z " fill="#02081E" transform="translate(334,104)"/>
<path d="M0 0 C3.65520497 2.11916553 6.21089123 4.83211902 8.5625 8.3125 C9.24641545 12.51369494 8.61571005 16.07104869 7 20 C4.51059861 23.3508133 1.59946627 24.81127914 -2.375 26.0625 C-7.08733122 25.98125291 -10.17252124 24.69820012 -14 22 C-17.20159433 18.4982562 -17.63093124 14.89843796 -17.4921875 10.2890625 C-16.62946775 6.27673095 -14.12512125 3.55484365 -11 1 C-7.23849274 -0.25383575 -3.88998961 -0.75519945 0 0 Z " fill="#0B7CED" transform="translate(473,107)"/>
<path d="M0 0 C4.14967274 1.92114479 5.65933703 3.40658708 7.9375 7.375 C9.08894803 11.30346974 9.23526997 13.12948743 8 17 C5.78889325 20.96474314 4.20937974 23.30391293 0 25 C-4.00702589 25.77029703 -7.54811616 25.87813383 -11.10546875 23.7265625 C-16.67530499 19.01804114 -16.67530499 19.01804114 -17.30859375 15.08203125 C-17.57618531 10.37079795 -17.24366823 7.66500427 -14.125 4 C-9.85714966 -0.45340906 -5.99831656 -0.70687232 0 0 Z " fill="#057DF6" transform="translate(473,169)"/>
<path d="M0 0 C14 0 14 0 19 1 C19 1.33 19 1.66 19 2 C13.39 2 7.78 2 2 2 C2 32.36 2 62.72 2 94 C8.27 94 14.54 94 21 94 C20.98839844 90.90496094 20.97679688 87.80992187 20.96484375 84.62109375 C20.95703543 81.60929466 20.95096877 78.59749672 20.94506836 75.58569336 C20.9400529 73.49942517 20.93323895 71.41316047 20.92456055 69.3269043 C20.91237264 66.32079199 20.90674369 63.31472634 20.90234375 60.30859375 C20.89718246 59.38227646 20.89202118 58.45595917 20.88670349 57.50157166 C20.88636754 53.58572769 21.01004237 49.93011738 21.56860352 46.04321289 C22.23596783 42.96415549 22.23596783 42.96415549 21 40 C21.59734611 37.97821315 22.27648573 35.98014432 23 34 C23.268125 32.80375 23.53625 31.6075 23.8125 30.375 C25.20433848 26.41924853 26.68001188 25.4292596 30 23 C31.00568242 21.33675599 32.00664799 19.67063747 33 18 C33.99 17.67 34.98 17.34 36 17 C36.66 17.33 37.32 17.66 38 18 C39.87379605 18.07033769 41.75001102 18.0843022 43.625 18.0625 C44.62789062 18.05347656 45.63078125 18.04445313 46.6640625 18.03515625 C47.82035156 18.01775391 47.82035156 18.01775391 49 18 C49 18.33 49 18.66 49 19 C48.13117188 19.17015625 47.26234375 19.3403125 46.3671875 19.515625 C37.43749951 21.17432453 37.43749951 21.17432453 30 26 C26.13231251 32.58009171 24.91695905 39.14853904 24.79467773 46.72998047 C24.77473251 47.83066864 24.75478729 48.93135681 24.73423767 50.06539917 C24.71752518 51.23748932 24.70081268 52.40957947 24.68359375 53.6171875 C24.66281265 54.82948029 24.64203156 56.04177307 24.62062073 57.290802 C24.55539018 61.1521453 24.49636349 65.01355491 24.4375 68.875 C24.39428959 71.49740261 24.3506745 74.11979859 24.30664062 76.7421875 C24.19897676 83.16139143 24.09970573 89.58064781 24 96 C16.08 96 8.16 96 0 96 C0 64.32 0 32.64 0 0 Z " fill="#02020C" transform="translate(63,98)"/>
<path d="M0 0 C6.27 0 12.54 0 19 0 C18.67 0.66 18.34 1.32 18 2 C13.05 2.33 8.1 2.66 3 3 C3 44.58 3 86.16 3 129 C9.6 129 16.2 129 23 129 C22.94352295 127.1427832 22.8870459 125.28556641 22.82885742 123.37207031 C22.64816645 117.23376069 22.49097565 111.09520067 22.34978771 104.95586014 C22.2633288 101.23371948 22.16746907 97.51231846 22.05004883 93.79101562 C21.93706286 90.19924148 21.84887153 86.6076327 21.77779579 83.0147934 C21.74634318 81.64464962 21.70598079 80.2746803 21.65654564 78.90506744 C21.58880138 76.98590249 21.55573115 75.06560866 21.52416992 73.14550781 C21.49530197 72.05296692 21.46643402 70.96042603 21.43669128 69.83477783 C22 67 22 67 24.52973938 64.61590576 C25.34492538 64.08265686 26.16011139 63.54940796 27 63 C28 66 28 66 27.08837891 68.85180664 C25.32021538 74.54017605 25.64126214 80.46778076 25.5859375 86.37109375 C25.56657135 87.64855972 25.5472052 88.9260257 25.5272522 90.24220276 C25.47776994 93.61720531 25.43642928 96.99210387 25.39910889 100.36724854 C25.35890259 103.81979927 25.30799001 107.27219153 25.2578125 110.72460938 C25.16036484 117.48301085 25.08063763 124.24129354 25 131 C16.75 131 8.5 131 0 131 C0 87.77 0 44.54 0 0 Z " fill="#02050B" transform="translate(357,63)"/>
<path d="M0 0 C0.66 0 1.32 0 2 0 C2.48509793 1.37291868 2.96275513 2.74846703 3.4375 4.125 C3.70433594 4.89070313 3.97117188 5.65640625 4.24609375 6.4453125 C5.72298457 11.44990625 6.12397047 16.26270492 6.11352539 21.46435547 C6.11344986 22.72520966 6.11337433 23.98606384 6.11329651 25.28512573 C6.10819109 26.6458134 6.10297511 28.00650065 6.09765625 29.3671875 C6.09578912 30.77108713 6.09436661 32.17498742 6.09336853 33.57888794 C6.08956658 37.25807522 6.07975633 40.93722248 6.06866455 44.61639404 C6.05840031 48.37706969 6.0538602 52.13775186 6.04882812 55.8984375 C6.03813179 63.26564528 6.02055401 70.63281191 6 78 C-1.92 78 -9.84 78 -18 78 C-18.06881254 73.47876132 -18.12855845 68.95933313 -18.16479492 64.43798828 C-18.17989711 62.89951426 -18.20038046 61.36108339 -18.22631836 59.82275391 C-18.26264074 57.61349859 -18.27971119 55.40481152 -18.29296875 53.1953125 C-18.30845261 52.50567413 -18.32393646 51.81603577 -18.33988953 51.10549927 C-18.34057617 49.16455078 -18.34057617 49.16455078 -18 46 C-17.01 45.34 -16.02 44.68 -15 44 C-15 54.56 -15 65.12 -15 76 C-8.73 76 -2.46 76 4 76 C3.89161759 68.55855467 3.77942829 61.1171897 3.66066074 53.67590237 C3.60565332 50.22008182 3.55227073 46.76425255 3.50268555 43.30834961 C3.44551965 39.32918177 3.38113523 35.35014602 3.31640625 31.37109375 C3.29969376 30.13854355 3.28298126 28.90599335 3.26576233 27.63609314 C3.16888987 21.99878138 2.99820004 16.55272492 2 11 C1.82339844 9.98035156 1.64679688 8.96070312 1.46484375 7.91015625 C1.29082031 6.97042969 1.11679688 6.03070313 0.9375 5.0625 C0.76089844 4.10472656 0.58429688 3.14695312 0.40234375 2.16015625 C0.20318359 1.09087891 0.20318359 1.09087891 0 0 Z " fill="#01020A" transform="translate(146,116)"/>
<path d="M0 0 C0.66 0.33 1.32 0.66 2 1 C2 21.79 2 42.58 2 64 C-2.95 64 -7.9 64 -13 64 C-13.33 63.34 -13.66 62.68 -14 62 C-9.38 62 -4.76 62 0 62 C0 41.54 0 21.08 0 0 Z " fill="#000208" transform="translate(250,130)"/>
<path d="M0 0 C0.66 0 1.32 0 2 0 C2.33 13.86 2.66 27.72 3 42 C4.98 40.35 6.96 38.7 9 37 C9.33 37.99 9.66 38.98 10 40 C8.7391988 41.03319813 7.46596742 42.05124379 6.1875 43.0625 C5.47980469 43.63097656 4.77210938 44.19945312 4.04296875 44.78515625 C3.36878906 45.18605469 2.69460938 45.58695313 2 46 C1.01 45.67 0.02 45.34 -1 45 C-2.14887711 41.55336867 -1.71390717 40.4929068 -1 37 C-0.85154614 34.13383424 -0.74476426 31.28579506 -0.68359375 28.41796875 C-0.66281265 27.60378983 -0.64203156 26.7896109 -0.62062073 25.95075989 C-0.55550537 23.36308821 -0.49641792 20.77531947 -0.4375 18.1875 C-0.39427858 16.42772455 -0.35066315 14.66795872 -0.30664062 12.90820312 C-0.1998632 8.60556691 -0.09848982 4.30283357 0 0 Z " fill="#00030C" transform="translate(378,64)"/>
<path d="M0 0 C0.33 0 0.66 0 1 0 C1.68936219 16.68036502 2.11280506 33.30485088 2 50 C-5.92 50 -13.84 50 -22 50 C-22 49.34 -22 48.68 -22 48 C-14.74 48 -7.48 48 0 48 C0 32.16 0 16.32 0 0 Z " fill="#03030C" transform="translate(444,144)"/>
<path d="M0 0 C1.24692627 0.00809692 1.24692627 0.00809692 2.51904297 0.01635742 C8.5956373 0.16669757 14.54858498 0.77120026 19.625 4.4375 C20.12 5.9225 20.12 5.9225 20.625 7.4375 C19.20818366 7.12567931 17.79155349 6.81301263 16.375 6.5 C15.58609375 6.32597656 14.7971875 6.15195313 13.984375 5.97265625 C11.22501171 5.34677418 8.48355682 4.67910958 5.75976562 3.91259766 C3.59932488 3.43178594 1.72479552 3.32310761 -0.484375 3.33984375 C-1.61552734 3.34467773 -1.61552734 3.34467773 -2.76953125 3.34960938 C-3.54683594 3.35798828 -4.32414062 3.36636719 -5.125 3.375 C-5.91777344 3.37951172 -6.71054687 3.38402344 -7.52734375 3.38867188 C-9.47659508 3.40041435 -11.42580738 3.41834854 -13.375 3.4375 C-13.375 4.0975 -13.375 4.7575 -13.375 5.4375 C-16.375 7.4375 -16.375 7.4375 -19.375 7.4375 C-18.875 5.625 -18.875 5.625 -17.375 3.4375 C-11.45261556 0.72032585 -6.4763454 -0.08031765 0 0 Z " fill="#030510" transform="translate(408.375,95.5625)"/>
<path d="M0 0 C-2.7639931 1.84266207 -5.09891315 3.02799429 -8.3125 3.9375 C-15.84054529 6.1065978 -21.82253189 9.11619873 -26 16 C-26.87982383 18.64433239 -27.40818369 21.26854011 -28 24 C-29.625 26 -29.625 26 -31 27 C-31.69332376 20.48275662 -29.81298584 16.27655616 -26 11 C-20.22712052 4.66664679 -8.79229702 -2.93076567 0 0 Z " fill="#01030E" transform="translate(197,137)"/>
<path d="M0 0 C0 0.66 0 1.32 0 2 C-1.65 2.66 -3.3 3.32 -5 4 C-5 4.33 -5 4.66 -5 5 C-6.98 5 -8.96 5 -11 5 C-11.33 5.66 -11.66 6.32 -12 7 C-13.32810215 8.67083819 -14.66172696 10.33729713 -16 12 C-16.99 13.485 -16.99 13.485 -18 15 C-18.99 15.33 -19.98 15.66 -21 16 C-22.01754868 17.8653245 -22.01754868 17.8653245 -22.6875 20.0625 C-22.93886719 20.79597656 -23.19023437 21.52945313 -23.44921875 22.28515625 C-23.63097656 22.85105469 -23.81273437 23.41695312 -24 24 C-24.66 24 -25.32 24 -26 24 C-25.15352429 16.53719373 -22.5902285 12.00063409 -17 7 C-11.76282165 3.09195403 -6.64828779 0 0 0 Z " fill="#02040F" transform="translate(293,97)"/>
<path d="M0 0 C8.96389884 0.28915803 15.72076155 3.54312582 22.125 9.875 C22.74375 10.57625 23.3625 11.2775 24 12 C23.67 12.66 23.34 13.32 23 14 C21.68 14 20.36 14 19 14 C18.814375 13.236875 18.62875 12.47375 18.4375 11.6875 C16.38700986 7.85397495 14.05612615 7.30621012 10 6 C9.154375 6.020625 8.30875 6.04125 7.4375 6.0625 C3.83906786 5.97023251 1.82029983 4.09882778 -1 2 C-0.67 1.34 -0.34 0.68 0 0 Z " fill="#040510" transform="translate(119,96)"/>
<path d="M0 0 C1.67542976 0.28604898 3.34385343 0.61781233 5 1 C4.34 2.32 3.68 3.64 3 5 C8.94 5.99 8.94 5.99 15 7 C15 7.66 15 8.32 15 9 C20.28 9 25.56 9 31 9 C31 9.66 31 10.32 31 11 C19.36182099 11.45639918 10.02265671 11.68177114 0 5 C-0.75 2.9375 -0.75 2.9375 -1 1 C-0.67 0.67 -0.34 0.34 0 0 Z " fill="#01020C" transform="translate(177,185)"/>
<path d="M0 0 C2.203125 1.9609375 2.203125 1.9609375 4 4 C4.99 4.33 5.98 4.66 7 5 C7 5.66 7 6.32 7 7 C7.66 7 8.32 7 9 7 C8.67 8.32 8.34 9.64 8 11 C7.34 11 6.68 11 6 11 C5.814375 10.401875 5.62875 9.80375 5.4375 9.1875 C3.34789934 6.00767291 0.54554961 5.00460621 -3 4 C-6.3258377 3.66220613 -9.59914365 3.71349171 -12.9375 3.8125 C-14.24944336 3.83280273 -14.24944336 3.83280273 -15.58789062 3.85351562 C-17.72553086 3.88855891 -19.86284984 3.94235459 -22 4 C-21 2 -21 2 -17.75 0.875 C-11.99895077 -0.41690236 -5.82829162 -0.90970689 0 0 Z " fill="#02030D" transform="translate(220,114)"/>
<path d="M0 0 C0 0.66 0 1.32 0 2 C-0.79664063 2.17015625 -1.59328125 2.3403125 -2.4140625 2.515625 C-8.38986659 3.88235392 -13.26079204 5.02931225 -18 9 C-19.26237731 11.52475462 -19.09856404 13.31200466 -19.0625 16.125 C-19.04896484 17.49011719 -19.04896484 17.49011719 -19.03515625 18.8828125 C-19.02355469 19.58148438 -19.01195312 20.28015625 -19 21 C-19.66 21 -20.32 21 -21 21 C-22.90833268 17.84335948 -23.19799736 16.08679446 -22.375 12.5 C-21.33089188 8.56203664 -20.4782382 6.34781079 -17 4 C-11.27667621 1.13334393 -6.41230592 -0.55759182 0 0 Z " fill="#02030D" transform="translate(210,151)"/>
<path d="M0 0 C-0.474375 0.680625 -0.94875 1.36125 -1.4375 2.0625 C-3.2817767 5.5297402 -3.85990954 8.07746717 -4 12 C-2.70208018 14.89039626 -2.70208018 14.89039626 -1 17 C-1.99 17 -2.98 17 -4 17 C-9.55580866 6.62642369 -9.55580866 6.62642369 -10 1 C-6.61981469 -0.04005702 -3.5219721 -0.08004482 0 0 Z " fill="#02040F" transform="translate(273,164)"/>
<path d="M0 0 C0.86580287 1.93232821 1.71729941 3.87107194 2.5625 5.8125 C3.03816406 6.89144531 3.51382812 7.97039062 4.00390625 9.08203125 C5 12 5 12 4 15 C1.16625119 11.79663178 0.4794463 9.21912747 0 5 C-3.04913228 3.98888907 -3.04913228 3.98888907 -6 5 C-6 4.34 -6 3.68 -6 3 C-7.1446875 3.7425 -7.1446875 3.7425 -8.3125 4.5 C-11 6 -11 6 -14 6 C-13.67 4.68 -13.34 3.36 -13 2 C-11.58461283 1.66127487 -10.16762037 1.32925376 -8.75 1 C-7.56664062 0.7215625 -7.56664062 0.7215625 -6.359375 0.4375 C-4 0 -4 0 0 0 Z " fill="#02030F" transform="translate(287,161)"/>
<path d="M0 0 C6.54912875 0.43660858 12.11816008 1.86423469 18.30078125 4.0625 C20.89715937 5.03769653 20.89715937 5.03769653 23.27734375 5.43359375 C23.84582031 5.62050781 24.41429687 5.80742187 25 6 C26.25 9.0625 26.25 9.0625 27 12 C26.34 12 25.68 12 25 12 C24.55527344 11.54625 24.11054688 11.0925 23.65234375 10.625 C17.92919023 4.99655588 7.53564457 3.70911526 0 2 C0 1.34 0 0.68 0 0 Z " fill="#00040F" transform="translate(295,151)"/>
<path d="M0 0 C1.64671412 0.30782496 3.29235576 0.62139234 4.9375 0.9375 C5.85402344 1.11152344 6.77054687 1.28554687 7.71484375 1.46484375 C10 2 10 2 11 3 C12.34015221 3.15582303 13.68758903 3.25044142 15.03515625 3.31640625 C16.24848633 3.37924805 16.24848633 3.37924805 17.48632812 3.44335938 C18.33646484 3.48267578 19.18660156 3.52199219 20.0625 3.5625 C20.91650391 3.60568359 21.77050781 3.64886719 22.65039062 3.69335938 C24.76672037 3.79976702 26.88333813 3.90041731 29 4 C29 4.66 29 5.32 29 6 C25.99975053 6.05444001 23.00050961 6.0938836 20 6.125 C19.16082031 6.14175781 18.32164062 6.15851563 17.45703125 6.17578125 C11.9621654 6.21837711 7.2050371 5.84732344 2 4 C0.5 1.875 0.5 1.875 0 0 Z " fill="#00010B" transform="translate(285,190)"/>
<path d="M0 0 C0 3 0 3 -1.0625 4.875 C-2.14906256 6.99507277 -2.14906256 6.99507277 -2.125 9.5 C-0.54987654 13.00027436 1.72746127 13.61143973 5.1875 15.0078125 C7 16 7 16 8 19 C-1.13314448 16.89235127 -1.13314448 16.89235127 -4.125 13.8125 C-5.36557437 9.82493952 -5.54005133 7.18539784 -5 3 C-2.5 1 -2.5 1 0 0 Z " fill="#020310" transform="translate(293,116)"/>
<path d="M0 0 C0 0.66 0 1.32 0 2 C-0.66 2 -1.32 2 -2 2 C-2.33 2.99 -2.66 3.98 -3 5 C-4.9717304 6.05464649 -6.97762948 7.04605164 -9 8 C-11.04622455 9.2748487 -13.01519198 10.62953732 -15 12 C-15.99 11.34 -16.98 10.68 -18 10 C-17.67 7.69 -17.34 5.38 -17 3 C-15 5 -15 5 -14 8 C-13.46890625 7.59007813 -12.9378125 7.18015625 -12.390625 6.7578125 C-11.68421875 6.21898438 -10.9778125 5.68015625 -10.25 5.125 C-9.55390625 4.59132813 -8.8578125 4.05765625 -8.140625 3.5078125 C-3.16062176 0 -3.16062176 0 0 0 Z " fill="#01030E" transform="translate(100,98)"/>
<path d="M0 0 C3.37534275 1.37278091 4.6632735 2.5776937 6.1875 5.875 C6.67283203 6.89207031 6.67283203 6.89207031 7.16796875 7.9296875 C7.97512467 9.93810364 8.53150318 11.88939815 9 14 C5.38026598 15.31626692 2.90432869 16 -1 16 C-1 15.34 -1 14.68 -1 14 C-0.0409375 13.5978125 -0.0409375 13.5978125 0.9375 13.1875 C3.33131686 12.11332248 3.33131686 12.11332248 4 9 C3.24896668 6.67404615 3.24896668 6.67404615 2.0625 4.3125 C1.68222656 3.50425781 1.30195313 2.69601563 0.91015625 1.86328125 C0.60980469 1.24839844 0.30945313 0.63351563 0 0 Z " fill="#01090D" transform="translate(336,109)"/>
<path d="M0 0 C0.66 0.33 1.32 0.66 2 1 C1.24438454 4.13040691 0.44731183 7.10537634 -1 10 C-0.01 10.99 0.98 11.98 2 13 C-0.31 12.67 -2.62 12.34 -5 12 C-6 9 -6 9 -4.75 5.4375 C-3 2 -3 2 0 0 Z " fill="#02030F" transform="translate(174,111)"/>
<path d="M0 0 C1.7734375 1.52734375 1.7734375 1.52734375 3 3 C0.03 2.505 0.03 2.505 -3 2 C-3.33 2.99 -3.66 3.98 -4 5 C-4.99 5 -5.98 5 -7 5 C-7 4.34 -7 3.68 -7 3 C-10.65316671 4.24976756 -11.78065836 4.67098753 -14 8 C-14.66 8 -15.32 8 -16 8 C-13.14566415 0.73441783 -7.36573636 -1.53108003 0 0 Z " fill="#1770D3" transform="translate(473,169)"/>
<path d="M0 0 C0.99 0 1.98 0 3 0 C4 4.75 4 4.75 4 7 C4.63040043 8.35085807 5.30251417 9.68252676 6 11 C6.66666667 12.33333333 7.33333333 13.66666667 8 15 C4.16358517 13.49283703 2.14009181 11.51586512 0 8 C-0.32789227 5.23853229 -0.18960429 2.79666324 0 0 Z " fill="#1777D5" transform="translate(456,178)"/>
<path d="M0 0 C2 2 2 2 2 5 C2.99 5.33 3.98 5.66 5 6 C4.67 6.66 4.34 7.32 4 8 C5.59617578 11.83082186 6.49984971 13.66656647 10 16 C8.68 16.33 7.36 16.66 6 17 C5.18278283 15.89932004 4.37140549 14.79430269 3.5625 13.6875 C3.11003906 13.07261719 2.65757812 12.45773438 2.19140625 11.82421875 C-0.32771055 7.96707925 -0.0843795 4.47211376 0 0 Z " fill="#02030D" transform="translate(267,126)"/>
<path d="M0 0 C0.99 0.33 1.98 0.66 3 1 C2.814375 1.886875 2.62875 2.77375 2.4375 3.6875 C1.82714779 6.91821398 1.82714779 6.91821398 2.5625 9.75 C2.706875 10.4925 2.85125 11.235 3 12 C1.33333333 13.66666667 -0.33333333 15.33333333 -2 17 C-3.36118395 14.27763211 -2.41390806 12.80223871 -1.546875 10.01953125 C-0.65271523 6.71752697 -0.35769718 3.39812319 0 0 Z " fill="#02030E" transform="translate(228,150)"/>
<path d="M0 0 C0.99 0 1.98 0 3 0 C1.87548273 2.9719385 0.77706209 5.33440687 -1 8 C-3.35171131 7.40138258 -5.6859378 6.73075648 -8 6 C-8.33 5.34 -8.66 4.68 -9 4 C-8.43410156 3.87882812 -7.86820313 3.75765625 -7.28515625 3.6328125 C-6.18494141 3.38144531 -6.18494141 3.38144531 -5.0625 3.125 C-4.33160156 2.96257812 -3.60070312 2.80015625 -2.84765625 2.6328125 C-0.79299706 2.17038477 -0.79299706 2.17038477 0 0 Z " fill="#03030B" transform="translate(191,121)"/>
<path d="M0 0 C0.99 0.33 1.98 0.66 3 1 C4.54926482 5.81087497 5.25400178 9.91996441 5 15 C4.01 15 3.02 15 2 15 C1.93941406 14.16855469 1.87882812 13.33710938 1.81640625 12.48046875 C1.73261719 11.39378906 1.64882813 10.30710938 1.5625 9.1875 C1.48128906 8.10855469 1.40007812 7.02960938 1.31640625 5.91796875 C1.09787539 2.94010095 1.09787539 2.94010095 0 0 Z " fill="#010310" transform="translate(440,118)"/>
<path d="M0 0 C1.02453911 2.04907821 2.02351753 4.05879383 2.875 6.1875 C3.86279272 8.20077462 3.86279272 8.20077462 6.125 8.75 C6.74375 8.8325 7.3625 8.915 8 9 C7.01 9.495 7.01 9.495 6 10 C6 10.66 6 11.32 6 12 C2.20596616 10.73532205 1.93315707 9.38302487 0 6 C-0.556875 5.443125 -1.11375 4.88625 -1.6875 4.3125 C-2.120625 3.879375 -2.55375 3.44625 -3 3 C-3 2.34 -3 1.68 -3 1 C-2.01 0.67 -1.02 0.34 0 0 Z " fill="#010211" transform="translate(317,115)"/>
<path d="M0 0 C0.66 0.33 1.32 0.66 2 1 C2.33 1 2.66 1 3 1 C3.33 1.66 3.66 2.32 4 3 C3.01 4.485 3.01 4.485 2 6 C1.36707617 8.11280345 1.36707617 8.11280345 1 10 C1.66 10 2.32 10 3 10 C3 10.66 3 11.32 3 12 C3.66 12.33 4.32 12.66 5 13 C4.67 13.66 4.34 14.32 4 15 C0.125 13.25 0.125 13.25 -1 11 C-1.09534254 9.3146804 -1.12985758 7.62550734 -1.125 5.9375 C-1.12757813 5.03902344 -1.13015625 4.14054687 -1.1328125 3.21484375 C-1 1 -1 1 0 0 Z " fill="#0477EE" transform="translate(458,115)"/>
<path d="M0 0 C1.3921875 0.2784375 1.3921875 0.2784375 2.8125 0.5625 C6.01343771 1.24123881 6.01343771 1.24123881 9 0 C9 0.66 9 1.32 9 2 C9.99 2.33 10.98 2.66 12 3 C12 3.33 12 3.66 12 4 C6.72 4 1.44 4 -4 4 C-3.67 3.34 -3.34 2.68 -3 2 C-2.01 2 -1.02 2 0 2 C0 1.34 0 0.68 0 0 Z " fill="#050612" transform="translate(300,112)"/>
<path d="M0 0 C-0.33 0.66 -0.66 1.32 -1 2 C-1.8353125 2.1546875 -1.8353125 2.1546875 -2.6875 2.3125 C-5.18762934 3.05578169 -6.15489342 3.90245973 -8.0625 5.625 C-9.031875 6.40875 -10.00125 7.1925 -11 8 C-11.99 7.67 -12.98 7.34 -14 7 C-12.92130607 6.03644756 -11.83681257 5.07938583 -10.75 4.125 C-9.84507812 3.32449219 -9.84507812 3.32449219 -8.921875 2.5078125 C-4.01818182 -1.33939394 -4.01818182 -1.33939394 0 0 Z " fill="#02030D" transform="translate(189,101)"/>
<path d="M0 0 C1.58323688 -0.027193 3.16661062 -0.04648306 4.75 -0.0625 C6.07257813 -0.07990234 6.07257813 -0.07990234 7.421875 -0.09765625 C9.7818838 -0.00826198 11.74498524 0.33087179 14 1 C14 1.66 14 2.32 14 3 C9.71 3 5.42 3 1 3 C0.67 2.01 0.34 1.02 0 0 Z " fill="#03040F" transform="translate(212,96)"/>
<path d="M0 0 C0.33 0.99 0.66 1.98 1 3 C-1.15622818 6.91315485 -2.80561727 9.39380262 -7 11 C-9.359375 11.1953125 -9.359375 11.1953125 -11.75 11.125 C-12.54921875 11.10695312 -13.3484375 11.08890625 -14.171875 11.0703125 C-14.77515625 11.04710937 -15.3784375 11.02390625 -16 11 C-16 10.67 -16 10.34 -16 10 C-12.04 9.34 -8.08 8.68 -4 8 C-3.67 6.68 -3.34 5.36 -3 4 C-2.34 4 -1.68 4 -1 4 C-0.67 2.68 -0.34 1.36 0 0 Z " fill="#1B70CC" transform="translate(480,183)"/>
<path d="M0 0 C2 3 2 3 2.9375 6.625 C3.288125 7.73875 3.63875 8.8525 4 10 C4.99 10.33 5.98 10.66 7 11 C6.67 11.66 6.34 12.32 6 13 C4.68 13 3.36 13 2 13 C-0.24828052 8.50343896 -0.16682272 4.92127034 0 0 Z " fill="#02020F" transform="translate(166,167)"/>
<path d="M0 0 C0.89332031 0.03480469 1.78664063 0.06960937 2.70703125 0.10546875 C3.60808594 0.13253906 4.50914063 0.15960938 5.4375 0.1875 C6.46810547 0.23970703 6.46810547 0.23970703 7.51953125 0.29296875 C7.18953125 1.28296875 6.85953125 2.27296875 6.51953125 3.29296875 C2.55953125 3.29296875 -1.40046875 3.29296875 -5.48046875 3.29296875 C-2.48046875 0.29296875 -2.48046875 0.29296875 0 0 Z " fill="#01020E" transform="translate(109.48046875,95.70703125)"/>
<path d="M0 0 C-1.25 1.5625 -1.25 1.5625 -3 3 C-5.1875 2.6875 -5.1875 2.6875 -7 2 C-7.33 2.66 -7.66 3.32 -8 4 C-8.99 3.34 -9.98 2.68 -11 2 C-7.72338241 -1.27661759 -4.29690696 -1.43230232 0 0 Z " fill="#04040F" transform="translate(202,97)"/>
<path d="M0 0 C0.66 0.33 1.32 0.66 2 1 C0.54347826 6.58333333 0.54347826 6.58333333 -1.875 8.4375 C-4.31555804 9.08353007 -5.64656559 8.84051229 -8 8 C-2.25 3 -2.25 3 0 3 C0 2.01 0 1.02 0 0 Z " fill="#01020C" transform="translate(322,167)"/>
<path d="M0 0 C-0.33 0.99 -0.66 1.98 -1 3 C-3.64 3.33 -6.28 3.66 -9 4 C-9 3.01 -9 2.02 -9 1 C-5.92677456 0.08941469 -3.19902639 -0.08886184 0 0 Z " fill="#03040E" transform="translate(209,134)"/>
<path d="M0 0 C-1.88178097 2.4044979 -2.99224715 2.99790027 -6 3.8125 C-9 4 -9 4 -12 2 C-7.8794254 0.00214565 -4.54805635 -0.17835515 0 0 Z " fill="#00040D" transform="translate(224,132)"/>
<path d="M0 0 C0.495 0.391875 0.99 0.78375 1.5 1.1875 C1.5 1.5175 1.5 1.8475 1.5 2.1875 C-2.46 2.8475 -6.42 3.5075 -10.5 4.1875 C-10.5 3.5275 -10.5 2.8675 -10.5 2.1875 C-3.28774617 -1.06851751 -3.28774617 -1.06851751 0 0 Z " fill="#01030C" transform="translate(224.5,147.8125)"/>
<path d="M0 0 C1.9375 0.5625 1.9375 0.5625 4 2 C4.75 5.625 4.75 5.625 5 9 C1.95529127 7.47764564 0.79729052 4.81575514 -1 2 C-0.67 1.34 -0.34 0.68 0 0 Z " fill="#00020F" transform="translate(243,109)"/>
<path d="M0 0 C0 3 0 3 -1.53125 4.60546875 C-2.1809375 5.12753906 -2.830625 5.64960938 -3.5 6.1875 C-4.1496875 6.71730469 -4.799375 7.24710938 -5.46875 7.79296875 C-5.9740625 8.19128906 -6.479375 8.58960938 -7 9 C-7.66 8.67 -8.32 8.34 -9 8 C-7.87716914 4.7437905 -7.04149584 4.02286505 -3.9375 2.3125 C-2.968125 1.879375 -1.99875 1.44625 -1 1 C-0.67 0.67 -0.34 0.34 0 0 Z " fill="#01020C" transform="translate(230,182)"/>
<path d="M0 0 C0.66 0 1.32 0 2 0 C0.70700306 2.88437779 -0.65941363 4.87219421 -3 7 C-3.99 6.67 -4.98 6.34 -6 6 C-4 4 -2 2 0 0 Z " fill="#02030F" transform="translate(390,118)"/>
<path d="M0 0 C0.33 0.66 0.66 1.32 1 2 C2.98 2 4.96 2 7 2 C7 2.33 7 2.66 7 3 C2.71 3.66 -1.58 4.32 -6 5 C-5.67 4.01 -5.34 3.02 -5 2 C-2.4375 0.8125 -2.4375 0.8125 0 0 Z " fill="#041B21" transform="translate(398,115)"/>
<path d="M0 0 C1.98 0 3.96 0 6 0 C6.33 0.66 6.66 1.32 7 2 C4.03 2.66 1.06 3.32 -2 4 C-2 3.34 -2 2.68 -2 2 C-1.34 2 -0.68 2 0 2 C0 1.34 0 0.68 0 0 Z " fill="#0C181D" transform="translate(323,125)"/>
<path d="M0 0 C3.82097239 0.53069061 6.06171403 1.49701566 9 4 C6.13822943 5.43088528 4.06624227 4.59991697 1 4 C0.67 2.68 0.34 1.36 0 0 Z " fill="#01050F" transform="translate(322,99)"/>
<path d="M0 0 C-0.33 0.66 -0.66 1.32 -1 2 C-3.28515625 2.4140625 -3.28515625 2.4140625 -6.0625 2.625 C-6.98160156 2.69976562 -7.90070313 2.77453125 -8.84765625 2.8515625 C-9.55792969 2.90054688 -10.26820313 2.94953125 -11 3 C-10.07380859 2.54173828 -10.07380859 2.54173828 -9.12890625 2.07421875 C-7.71155529 1.35904166 -6.31331931 0.60463839 -4.9375 -0.1875 C-3 -1 -3 -1 0 0 Z " fill="#00010C" transform="translate(326,192)"/>
<path d="M0 0 C0.99 0 1.98 0 3 0 C3.33 1.65 3.66 3.3 4 5 C2.02 5.99 2.02 5.99 0 7 C0 4.69 0 2.38 0 0 Z " fill="#0D72DD" transform="translate(456,178)"/>
<path d="M0 0 C1.4800841 0.11362262 2.95910074 0.24122908 4.4375 0.375 C5.26121094 0.44460937 6.08492188 0.51421875 6.93359375 0.5859375 C7.95646484 0.79089844 7.95646484 0.79089844 9 1 C9.33 1.66 9.66 2.32 10 3 C6.7 2.67 3.4 2.34 0 2 C0 1.34 0 0.68 0 0 Z " fill="#00020C" transform="translate(302,134)"/>
<path d="M0 0 C2.97 0.99 5.94 1.98 9 3 C9 3.66 9 4.32 9 5 C6.1875 5.3125 6.1875 5.3125 3 5 C1.125 2.5 1.125 2.5 0 0 Z " fill="#02040C" transform="translate(227,98)"/>
<path d="M0 0 C0.66 0 1.32 0 2 0 C3.6875 1.75 3.6875 1.75 5 4 C4.6875 6.25 4.6875 6.25 4 8 C3.34 8 2.68 8 2 8 C1.34 5.36 0.68 2.72 0 0 Z " fill="#0E0F16" transform="translate(124,125)"/>
<path d="M0 0 C3.65316671 1.24976756 4.78065836 1.67098753 7 5 C3.31245243 4.50168276 1.39509338 3.89932357 -1 1 C-0.67 0.67 -0.34 0.34 0 0 Z " fill="#131429" transform="translate(280,188)"/>
<path d="M0 0 C0.99 0 1.98 0 3 0 C4.35439668 2.70879335 4.06501451 5.00933268 4 8 C3.34 7.67 2.68 7.34 2 7 C2 6.01 2 5.02 2 4 C1.34 3.67 0.68 3.34 0 3 C0 2.01 0 1.02 0 0 Z " fill="#01020D" transform="translate(341,154)"/>
<path d="M0 0 C0 0.66 0 1.32 0 2 C-2.5 3.625 -2.5 3.625 -5 5 C-5.66 4.34 -6.32 3.68 -7 3 C-4.42280223 0.42280223 -3.67620068 0 0 0 Z " fill="#0C0D16" transform="translate(224,171)"/>
<path d="M0 0 C1.32 0.33 2.64 0.66 4 1 C4 1.66 4 2.32 4 3 C4.66 3.33 5.32 3.66 6 4 C5.67 4.66 5.34 5.32 5 6 C3.0625 5.25 3.0625 5.25 1 4 C0.25 1.875 0.25 1.875 0 0 Z " fill="#1874CE" transform="translate(457,124)"/>
<path d="M0 0 C0 1.65 0 3.3 0 5 C-0.391875 4.525625 -0.78375 4.05125 -1.1875 3.5625 C-3.40808374 1.64820367 -5.13375709 1.38733012 -8 1 C-4.93251126 -0.86240388 -3.40254489 -1.2151946 0 0 Z " fill="#26262E" transform="translate(85,98)"/>
<path d="" fill="#FFFFFF" transform="translate(0,0)"/>
<path d="" fill="#FF00FF" transform="translate(0,0)"/>
<path d="" fill="#FFFFFF" transform="translate(0,0)"/>
<path d="" fill="#000000" transform="translate(0,0)"/>
<path d="" fill="#FFFFFF" transform="translate(0,0)"/>
</svg>
